<svg width="54" height="54" viewBox="0 0 54 54" fill="none" xmlns="http://www.w3.org/2000/svg">
<path fill-rule="evenodd" clip-rule="evenodd" d="M13.8517 12.4377C12.6438 11.2298 12.6785 9.24013 14.084 8.26914C16.6794 6.47613 19.6656 5.20861 22.889 4.62036C24.5689 4.31377 25.9997 5.69635 25.9997 7.40407V17.3431C25.9997 20.0158 22.7683 21.3543 20.8784 19.4644L13.8517 12.4377ZM10.9784 10.8482C10.9347 10.8915 10.8913 10.935 10.8479 10.9786L10.9784 10.8482ZM12.4375 13.8519C11.2295 12.644 9.23991 12.6788 8.26892 14.0843C6.47591 16.6796 5.2084 19.6658 4.62015 22.8892C4.31356 24.5691 5.69614 25.9999 7.40386 25.9999H17.3429C20.0156 25.9999 21.3541 22.7685 19.4642 20.8786L12.4375 13.8519ZM4.24972 26.9999L4.24998 26.8891L4.24998 27.1108L4.24972 26.9999ZM12.4375 40.1479C11.2295 41.3559 9.23991 41.3211 8.26892 39.9156C6.47591 37.3203 5.2084 34.334 4.62015 31.1107C4.31356 29.4307 5.69614 27.9999 7.40386 27.9999H17.3429C20.0156 27.9999 21.3541 31.2313 19.4642 33.1212L12.4375 40.1479ZM10.8482 43.0215C10.8913 43.065 10.9346 43.1083 10.9781 43.1514L10.8482 43.0215ZM13.8517 41.5622C12.6438 42.7701 12.6785 44.7597 14.084 45.7307C16.6794 47.5237 19.6656 48.7912 22.889 49.3795C24.5689 49.6861 25.9997 48.3035 25.9997 46.5958V36.6568C25.9997 33.9841 22.7683 32.6456 20.8784 34.5355L13.8517 41.5622ZM34.5353 20.8786C32.6454 22.7685 33.9839 25.9999 36.6566 25.9999H46.5956C48.3033 25.9999 49.6859 24.5691 49.3793 22.8892C48.791 19.6658 47.5235 16.6796 45.7305 14.0842C44.7595 12.6788 42.7699 12.644 41.5619 13.8519L34.5353 20.8786ZM40.1477 12.4377C41.3557 11.2298 41.3209 9.24013 39.9154 8.26914C37.32 6.47613 34.3338 5.20861 31.1105 4.62036C29.4305 4.31377 27.9997 5.69635 27.9997 7.40408V17.3431C27.9997 20.0158 31.2311 21.3543 33.121 19.4644L40.1477 12.4377ZM45.7305 39.9156C44.7595 41.3211 42.7699 41.3559 41.5619 40.1479L34.5352 33.1212C32.6454 31.2314 33.9839 27.9999 36.6566 27.9999H46.5956C48.3033 27.9999 49.6859 29.4307 49.3793 31.1107C48.791 34.334 47.5235 37.3202 45.7305 39.9156ZM33.121 34.5355C31.2311 32.6456 27.9997 33.9841 27.9997 36.6568V46.5958C27.9997 48.3035 29.4305 49.6861 31.1105 49.3795C34.3338 48.7912 37.32 47.5237 39.9154 45.7307C41.3209 44.7597 41.3557 42.7701 40.1477 41.5622L33.121 34.5355Z" fill="#6A54FF"/>
<circle cx="26.9997" cy="4.25" r="3.75" fill="#57E1FF" stroke="black"/>
<circle cx="26.9997" cy="49.75" r="3.75" fill="#57E1FF" stroke="black"/>
<circle cx="10.9131" cy="10.9135" r="3.75" transform="rotate(-45 10.9131 10.9135)" fill="#57E1FF" stroke="black"/>
<circle cx="43.0865" cy="43.0865" r="3.75" transform="rotate(-45 43.0865 43.0865)" fill="#57E1FF" stroke="black"/>
<circle cx="4.25" cy="27" r="3.75" transform="rotate(-90 4.25 27)" fill="#57E1FF" stroke="black"/>
<circle cx="49.7497" cy="27" r="3.75" transform="rotate(-90 49.7497 27)" fill="#57E1FF" stroke="black"/>
<circle cx="10.9132" cy="43.0866" r="3.75" transform="rotate(-135 10.9132 43.0866)" fill="#57E1FF" stroke="black"/>
<circle cx="43.0865" cy="10.9135" r="3.75" transform="rotate(-135 43.0865 10.9135)" fill="#57E1FF" stroke="black"/>
</svg>
